# xmcd CD Database Entry
#
# Track frame offsets:
# 150
# 19893
# 34075
# 44978
# 56705
# 71093
# 84118
# 107338
# 113608
# 126835
# 141643
# 155863
# 172938
# 191265
# 203115
#
# Disc length: 2928 seconds
#
# Revision: 1
# Processed by: cddbd v1.4PL0 Copyright (c) Steve Scherf et al.
# Submitted via: tcd 2.0b
#
DISCID=d40b6e0f
DTITLE=Manos Hadjidakis - 30 night songs (1)
DYEAR=1900
DGENRE=
TTITLE0=Pame mia bolta sto feggari
TTITLE1=Koita me sta matia
TTITLE2=Se mia upaithria agora
TTITLE3=Agaph mesa sthn kardia
TTITLE4=Triantafullo sto sththos
TTITLE5=Paei o kairos paei o kairos
TTITLE6=Magikh polh
TTITLE7=Garufallo st' auti
TTITLE8=H melagxolia ths eutuxias
TTITLE9=Argo nuxterino zeimpekiko
TTITLE10=To astro ths anatolhs
TTITLE11=To kuparissaki
TTITLE12=H pikra shmera
TTITLE13=Kourasmeno palikari
TTITLE14=To bals twn xamenwn oneirwn
EXTD=
EXTT0=
EXTT1=
EXTT2=
EXTT3=
EXTT4=
EXTT5=
EXTT6=
EXTT7=
EXTT8=
EXTT9=
EXTT10=
EXTT11=
EXTT12=
EXTT13=
EXTT14=
PLAYORDER=
